# MagicaVoxel @ Ephtracy

# material
mtllib magebook-00.mtl
usemtl palette

# normals
vn -1 0 0
vn 1 0 0
vn 0 0 1
vn 0 0 -1
vn 0 -1 0
vn 0 1 0

# texcoords
vt 0.845703 0.5
vt 0.857422 0.5
vt 0.869141 0.5
vt 0.958984 0.5
vt 0.966797 0.5

# verts
v -2 3 2
v -2 3 1
v -2 3 -0
v -2 3 -1
v -2 9 2
v -2 9 1
v -2 9 -0
v -2 9 -1
v 2 3 2
v 2 3 1
v 2 3 -0
v 2 3 -1
v 2 9 2
v 2 9 1
v 2 9 -0
v 2 9 -1
v -2 3 2
v -2 9 2
v -1 6 2
v -1 8 2
v 1 6 2
v 1 8 2
v 2 3 2
v 2 9 2
v -2 3 -1
v -2 9 -1
v 2 3 -1
v 2 9 -1
v -2 3 2
v 2 3 2
v -2 3 1
v -1 3 1
v 2 3 1
v -2 3 -0
v -1 3 -0
v 2 3 -0
v -2 3 -1
v 2 3 -1
v -2 9 2
v 2 9 2
v -2 9 1
v -1 9 1
v 2 9 1
v -2 9 -0
v -1 9 -0
v 2 9 -0
v -2 9 -1
v 2 9 -1

# faces
f 5/1/1 2/1/1 1/1/1
f 6/2/1 3/2/1 2/2/1
f 6/1/1 2/1/1 5/1/1
f 7/1/1 4/1/1 3/1/1
f 7/2/1 3/2/1 6/2/1
f 8/1/1 4/1/1 7/1/1
f 9/1/2 10/1/2 13/1/2
f 10/4/2 11/4/2 14/4/2
f 13/1/2 10/1/2 14/1/2
f 11/1/2 12/1/2 15/1/2
f 14/4/2 11/4/2 15/4/2
f 15/1/2 12/1/2 16/1/2
f 19/1/3 18/1/3 17/1/3
f 20/1/3 18/1/3 19/1/3
f 21/1/3 19/1/3 17/1/3
f 21/3/3 20/3/3 19/3/3
f 22/1/3 18/1/3 20/1/3
f 22/3/3 20/3/3 21/3/3
f 23/1/3 21/1/3 17/1/3
f 23/1/3 22/1/3 21/1/3
f 24/1/3 18/1/3 22/1/3
f 24/1/3 22/1/3 23/1/3
f 25/1/4 26/1/4 27/1/4
f 27/1/4 26/1/4 28/1/4
f 31/1/5 30/1/5 29/1/5
f 32/1/5 30/1/5 31/1/5
f 33/1/5 30/1/5 32/1/5
f 34/2/5 32/2/5 31/2/5
f 35/4/5 33/4/5 32/4/5
f 35/2/5 32/2/5 34/2/5
f 36/4/5 33/4/5 35/4/5
f 37/1/5 35/1/5 34/1/5
f 37/1/5 36/1/5 35/1/5
f 38/1/5 36/1/5 37/1/5
f 39/1/6 40/1/6 41/1/6
f 41/1/6 40/1/6 42/1/6
f 42/1/6 40/1/6 43/1/6
f 41/2/6 42/2/6 44/2/6
f 42/4/6 43/4/6 45/4/6
f 44/2/6 42/2/6 45/2/6
f 45/4/6 43/4/6 46/4/6
f 44/1/6 45/1/6 47/1/6
f 45/1/6 46/1/6 47/1/6
f 47/1/6 46/1/6 48/1/6
