# File produced by Open Asset Import Library (http://www.assimp.sf.net)
# (assimp v3.1.35440475)

mtllib two_way.mtl

# 32 vertex positions
v  24 -4.29153e-06 24
v  24 12 24
v  4 12 24
v  4 2 24
v  -4 2 24
v  -4 12 24
v  -24 12 24
v  -24 -4.29153e-06 24
v  -24 12 -24
v  -24 3.8147e-06 -24
v  23 2 -23
v  23 2 23
v  23 12 23
v  23 12 -23
v  4 12 23
v  24 12 -24
v  4 12 -24
v  4 12 -23
v  -4 2 -23
v  -4 2 -24
v  -4 12 -24
v  -4 12 -23
v  24 3.8147e-06 -24
v  -23 2 -23
v  -23 12 -23
v  -23 2 23
v  -23 12 23
v  -4 12 23
v  -4 2 23
v  4 2 23
v  4 2 -24
v  4 2 -23

# 68 UV coordinates
vt 0.3704 0.4248 0
vt 0.4815 0.4248 0
vt 0.4815 0.6018 0
vt 0.3889 0.6018 0
vt 0.3889 0.6726 0
vt 0.4815 0.6726 0
vt 0.4815 0.8496 0
vt 0.3704 0.8496 0
vt 0.7037 0.4248 0
vt 0.7037 0.8496 0
vt 0.5926 0.8496 0
vt 0.5926 0.4248 0
vt 0.8148 0.8319 0
vt 0.8148 0.4248 0
vt 0.9074 0.4248 0
vt 0.9074 0.8319 0
vt 0.1944 0.8407 0
vt 0.3704 0.8407 0
vt 0.1852 0.8496 0
vt 0.1852 0.4248 0
vt 0.3704 0.4336 0
vt 0.1944 0.4336 0
vt 0.963 0 0
vt 0.9722 0 0
vt 0.9722 0.0885 0
vt 0.963 0.0885 0
vt 0.8148 0.8496 0
vt 0.9074 1 0
vt 0.8148 1 0
vt 1 0.5929 0
vt 0.9074 0.5929 0
vt 1 0.4248 0
vt 0.9074 0.7611 0
vt 1 0.7611 0
vt 1 0.9292 0
vt 0.9074 0.9292 0
vt 0 0.4248 0
vt 0 0 0
vt 0.4444 0 0
vt 0.4444 0.4248 0
vt 0.963 0.2655 0
vt 0.9722 0.2655 0
vt 0.9722 0.354 0
vt 0.963 0.354 0
vt 0.9722 0.177 0
vt 0.963 0.177 0
vt 0.5741 0.6726 0
vt 0.5741 0.6018 0
vt 0.8704 0 0
vt 0.963 0.4071 0
vt 0.8704 0.4071 0
vt 0.8704 0.0088 0
vt 0.8704 0.4159 0
vt 0.6944 0.4159 0
vt 0.6944 0.4248 0
vt 0.6204 0.4248 0
vt 0.6204 0.4159 0
vt 0.4444 0.4159 0
vt 0.4444 0.0088 0
vt 0.6204 0.0088 0
vt 0.6204 0 0
vt 0.6944 0 0
vt 0.6944 0.0088 0
vt 0.1759 0.4336 0
vt 0 0.4336 0
vt 0 0.8496 0
vt 0 0.8407 0
vt 0.1759 0.8407 0

# 6 vertex normals
vn 0 -0 1
vn 1 0 0
vn -1 0 0
vn 0 1 0
vn 0 0 -1
vn 0 -1 -0

# Mesh 'Open_Two_Way__Room-00_Open_Two_Way__Room-00' with 60 faces
g Open_Two_Way__Room-00_Open_Two_Way__Room-00
usemtl palette
f  1/1/1 2/2/1 3/3/1
f  1/1/1 3/3/1 4/4/1
f  1/1/1 4/4/1 5/5/1
f  5/5/1 6/6/1 7/7/1
f  5/5/1 7/7/1 8/8/1
f  8/8/1 1/1/1 5/5/1
f  9/9/2 7/10/2 8/11/2
f  8/11/2 10/12/2 9/9/2
f  11/13/3 12/14/3 13/15/3
f  13/15/3 14/16/3 11/13/3
f  13/17/4 15/18/4 3/8/4
f  13/17/4 3/8/4 2/19/4
f  13/17/4 2/19/4 16/20/4
f  16/20/4 17/1/4 18/21/4
f  16/20/4 18/21/4 14/22/4
f  16/20/4 14/22/4 13/17/4
f  19/23/2 20/24/2 21/25/2
f  21/25/2 22/26/2 19/23/2
f  1/10/2 23/9/2 16/14/2
f  16/14/2 2/27/2 1/10/2
f  24/16/1 19/28/1 22/29/1
f  22/29/1 25/13/1 24/16/1
f  26/30/5 27/31/5 28/15/5
f  28/15/5 29/32/5 26/30/5
f  13/33/5 12/34/5 30/35/5
f  30/35/5 15/36/5 13/33/5
f  23/37/6 1/38/6 8/39/6
f  8/39/6 10/40/6 23/37/6
f  5/41/2 29/42/2 28/43/2
f  28/43/2 6/44/2 5/41/2
f  18/26/3 17/25/3 31/45/3
f  31/45/3 32/46/3 18/26/3
f  3/46/3 15/45/3 30/42/3
f  30/42/3 4/41/3 3/46/3
f  9/7/5 21/6/5 20/47/5
f  31/48/5 17/3/5 16/2/5
f  31/48/5 16/2/5 23/12/5
f  31/48/5 23/12/5 10/11/5
f  10/11/5 9/7/5 20/47/5
f  20/47/5 31/48/5 10/11/5
f  24/49/2 25/23/2 27/50/2
f  27/50/2 26/51/2 24/49/2
f  24/52/4 26/53/4 29/54/4
f  29/54/4 5/55/4 4/56/4
f  29/54/4 4/56/4 30/57/4
f  29/54/4 30/57/4 12/58/4
f  29/54/4 12/58/4 11/59/4
f  29/54/4 11/59/4 32/60/4
f  29/54/4 32/60/4 31/61/4
f  29/54/4 31/61/4 20/62/4
f  29/54/4 20/62/4 19/63/4
f  29/54/4 19/63/4 24/52/4
f  32/33/1 11/31/1 14/30/1
f  14/30/1 18/34/1 32/33/1
f  25/64/4 22/65/4 21/37/4
f  25/64/4 21/37/4 9/20/4
f  25/64/4 9/20/4 7/19/4
f  7/19/4 6/66/4 28/67/4
f  7/19/4 28/67/4 27/68/4
f  7/19/4 27/68/4 25/64/4

