# File produced by Open Asset Import Library (http://www.assimp.sf.net)
# (assimp v3.1.35440475)

mtllib Open_Way.mtl

# 32 vertex positions
v  7 1 -2
v  8 1 -2
v  8 1 -3
v  7 1 -3
v  -4 12 24
v  -24 12 24
v  -24 -4.29153e-06 24
v  24 -4.29153e-06 24
v  24 12 24
v  4 12 24
v  4 2 24
v  -4 2 24
v  -24 12 -24
v  -24 3.8147e-06 -24
v  23 2 -23
v  23 2 23
v  23 12 23
v  23 12 -23
v  4 12 23
v  24 12 -24
v  -4 12 23
v  -23 12 23
v  -23 12 -23
v  4 2 23
v  -23 2 23
v  -23 2 -23
v  24 3.8147e-06 -24
v  -4 2 23
v  -17 0.999999 4
v  -16 0.999999 4
v  -16 1 3
v  -17 1 3

# 59 UV coordinates
vt 0.114 0.8333 0
vt 0.1228 0.8333 0
vt 0.1228 0.8421 0
vt 0.114 0.8421 0
vt 0.7193 0.6667 0
vt 0.7193 0.8421 0
vt 0.614 0.8421 0
vt 0.614 0.4211 0
vt 0.7193 0.4211 0
vt 0.7193 0.5965 0
vt 0.6316 0.5965 0
vt 0.6316 0.6667 0
vt 0.4035 0.4211 0
vt 0.5088 0.4211 0
vt 0.5088 0.8421 0
vt 0.4035 0.8421 0
vt 0.8246 0.8246 0
vt 0.8246 0.4211 0
vt 0.9123 0.4211 0
vt 0.9123 0.8246 0
vt 0.0088 0.0088 0
vt 0.0088 0.1754 0
vt 0 0.1754 0
vt 0 0 0
vt 0.4211 0 0
vt 0 0.4211 0
vt 0 0.2456 0
vt 0.0088 0.2456 0
vt 0.0088 0.4123 0
vt 0.4123 0.4123 0
vt 0.4123 0.0088 0
vt 0.4211 0.4211 0
vt 0.0877 0.8333 0
vt 0.0965 0.8333 0
vt 0.0965 0.9211 0
vt 0.0877 0.9211 0
vt 1 0.4211 0
vt 1 0.8246 0
vt 0.8246 0.8421 0
vt 0.8421 0.4035 0
vt 0.8421 0 0
vt 0.9298 0 0
vt 0.9298 0.4035 0
vt 0 0.8333 0
vt 0.0877 1 0
vt 0 1 0
vt 0.9123 0.9912 0
vt 0.8246 0.9912 0
vt 0.8421 0.4211 0
vt 0.1053 0.8333 0
vt 0.1053 0.9211 0
vt 0.4035 0.4298 0
vt 0.4035 0.8333 0
vt 0 0.4298 0
vt 0.1667 0.4298 0
vt 0.1667 0.4211 0
vt 0.2368 0.4211 0
vt 0.2368 0.4298 0
vt 0.1053 0.8421 0

# 6 vertex normals
vn 0 1 0
vn 0 -0 1
vn -1 0 0
vn 1 -0 0
vn 0 0 -1
vn 0 -1 -0

# Mesh 'open-room-01_open-room-01' with 48 faces
g open-room-01_open-room-01
usemtl palette
f  1/1/1 2/2/1 3/3/1
f  3/3/1 4/4/1 1/1/1
f  5/5/2 6/6/2 7/7/2
f  8/8/2 9/9/2 10/10/2
f  8/8/2 10/10/2 11/11/2
f  8/8/2 11/11/2 12/12/2
f  12/12/2 5/5/2 7/7/2
f  7/7/2 8/8/2 12/12/2
f  7/13/3 6/14/3 13/15/3
f  13/15/3 14/16/3 7/13/3
f  15/17/3 16/18/3 17/19/3
f  17/19/3 18/20/3 15/17/3
f  17/21/1 19/22/1 10/23/1
f  17/21/1 10/23/1 9/24/1
f  17/21/1 9/24/1 20/25/1
f  6/26/1 5/27/1 21/28/1
f  6/26/1 21/28/1 22/29/1
f  6/26/1 22/29/1 23/30/1
f  18/31/1 17/21/1 20/25/1
f  18/31/1 20/25/1 13/32/1
f  13/32/1 6/26/1 23/30/1
f  18/31/1 13/32/1 23/30/1
f  10/33/3 19/34/3 24/35/3
f  24/35/3 11/36/3 10/33/3
f  25/20/4 26/19/4 23/37/4
f  23/37/4 22/38/4 25/20/4
f  27/9/4 20/18/4 9/39/4
f  9/39/4 8/6/4 27/9/4
f  26/40/2 15/41/2 18/42/2
f  18/42/2 23/43/2 26/40/2
f  21/44/5 28/33/5 25/45/5
f  25/45/5 22/46/5 21/44/5
f  17/17/5 16/20/5 24/47/5
f  24/47/5 19/48/5 17/17/5
f  27/8/5 14/7/5 13/15/5
f  13/15/5 20/14/5 27/8/5
f  14/49/6 27/32/6 8/25/6
f  8/25/6 7/41/6 14/49/6
f  12/34/4 28/50/4 21/51/4
f  21/51/4 5/35/4 12/34/4
f  16/52/1 15/53/1 26/44/1
f  16/52/1 26/44/1 25/54/1
f  28/55/1 12/56/1 11/57/1
f  28/55/1 11/57/1 24/58/1
f  28/55/1 24/58/1 16/52/1
f  25/54/1 28/55/1 16/52/1
f  29/50/1 30/1/1 31/4/1
f  31/4/1 32/59/1 29/50/1

